<?xml version="1.0" standalone="no"?>
<!DOCTYPE svg PUBLIC "-//W3C//DTD SVG 20010904//EN"
 "http://www.w3.org/TR/2001/REC-SVG-20010904/DTD/svg10.dtd">
<svg version="1.0" xmlns="http://www.w3.org/2000/svg"
 width="1500.000000pt" height="1500.000000pt" viewBox="0 0 1500.000000 1500.000000"
 preserveAspectRatio="xMidYMid meet">
<metadata>
Created by potrace 1.14, written by Peter Selinger 2001-2017
</metadata>
<g transform="translate(0.000000,1500.000000) scale(0.100000,-0.100000)"
fill="#000000" stroke="none">
<path d="M7419 13258 c-9 -72 -14 -208 -13 -378 0 -221 4 -289 22 -407 80
-513 282 -998 645 -1543 225 -338 504 -688 1032 -1295 689 -792 975 -1166
1264 -1653 229 -384 370 -825 422 -1312 16 -152 16 -526 0 -670 -104 -933
-570 -1749 -1319 -2312 -338 -254 -751 -448 -1207 -565 l-69 -18 -349 -565
c-191 -311 -351 -566 -355 -567 -4 -2 -162 253 -352 564 l-346 568 -109 27
c-603 153 -1131 458 -1566 904 -504 519 -816 1161 -909 1879 -51 389 -33 855
45 1185 80 334 187 558 530 1110 474 763 680 1239 680 1573 0 64 4 117 9 117
13 0 175 -89 216 -119 178 -130 293 -283 341 -456 18 -63 23 -105 22 -195 0
-100 -9 -158 -66 -445 -124 -623 -151 -942 -101 -1205 35 -184 90 -285 210
-380 281 -223 684 -270 977 -113 28 15 86 62 128 103 132 130 185 274 195 530
18 414 -89 817 -416 1570 -467 1075 -485 1123 -535 1390 -32 175 -40 299 -39
605 0 338 10 449 64 715 101 504 296 903 581 1189 l84 85 -104 -79 c-542 -408
-977 -952 -1245 -1555 -121 -273 -224 -616 -260 -869 -9 -57 -17 -105 -18
-106 -2 -1 -74 -39 -162 -84 -899 -466 -1617 -1203 -2062 -2116 -406 -834
-552 -1733 -434 -2662 177 -1384 973 -2624 2162 -3369 1273 -799 2868 -935
4268 -364 955 390 1764 1095 2289 1995 427 731 654 1616 627 2440 -32 985
-317 1846 -870 2630 -342 485 -837 949 -1348 1265 -139 85 -460 254 -614 323
-79 36 -217 151 -374 313 -435 448 -927 1197 -1410 2147 l-147 288 -14 -113z"/>
<path d="M5883 6275 c-126 -35 -222 -115 -280 -233 -37 -74 -38 -79 -38 -181
1 -126 22 -192 89 -274 85 -105 184 -156 317 -165 161 -10 299 61 390 200 147
227 45 541 -208 639 -74 28 -197 35 -270 14z"/>
<path d="M7378 6271 c-124 -41 -216 -122 -271 -238 -53 -115 -48 -263 13 -384
31 -60 115 -144 177 -176 200 -105 437 -47 566 137 158 226 57 553 -200 650
-82 31 -210 36 -285 11z"/>
<path d="M8888 6271 c-210 -67 -336 -270 -300 -482 53 -310 384 -465 654 -306
64 37 135 118 171 195 30 63 32 74 32 177 0 103 -2 114 -32 177 -36 77 -107
158 -171 195 -105 62 -244 79 -354 44z"/>
</g>
</svg>
